<svg xmlns="http://www.w3.org/2000/svg" xmlns:xlink="http://www.w3.org/1999/xlink" width="500" zoomAndPan="magnify" viewBox="0 0 375 374.999991" height="500" preserveAspectRatio="xMidYMid meet" version="1.0"><defs><clipPath id="82d0ca0435"><path d="M 115 295 L 141 295 L 141 359.253906 L 115 359.253906 Z M 115 295 " clip-rule="nonzero"/></clipPath><clipPath id="eb003e0c7a"><path d="M 234 15.753906 L 260 15.753906 L 260 80 L 234 80 Z M 234 15.753906 " clip-rule="nonzero"/></clipPath></defs><path fill="#322f30" d="M 220.234375 266.660156 C 220.234375 266.660156 277.800781 261.117188 246.171875 191.582031 C 246.171875 191.582031 287.925781 212.441406 317.65625 187.789062 C 317.65625 187.789062 282.863281 268.414062 220.234375 266.660156 " fill-opacity="1" fill-rule="nonzero"/><g clip-path="url(#82d0ca0435)"><path fill="#322f30" d="M 123.105469 295.101562 C 123.105469 295.101562 99.246094 338.785156 137.019531 359.253906 C 137.019531 359.253906 150.699219 324.433594 123.105469 295.101562 " fill-opacity="1" fill-rule="nonzero"/></g><path fill="#322f30" d="M 152.453125 248.566406 C 152.453125 248.566406 174.492188 225.964844 198.65625 232.753906 C 204.363281 234.355469 210.1875 237.59375 215.867188 243.152344 C 215.867188 243.152344 171.976562 264.050781 152.453125 248.566406 " fill-opacity="1" fill-rule="nonzero"/><path fill="#322f30" d="M 74.570312 263.507812 C 74.503906 263.191406 74.464844 262.863281 74.464844 262.527344 C 74.464844 259.96875 76.539062 257.894531 79.101562 257.894531 C 79.117188 257.894531 79.128906 257.898438 79.140625 257.898438 C 79.671875 257.75 80.230469 257.664062 80.8125 257.664062 C 84.265625 257.664062 87.066406 260.464844 87.066406 263.917969 C 87.066406 267.371094 84.265625 270.171875 80.8125 270.171875 C 77.351562 270.171875 74.550781 267.371094 74.550781 263.917969 C 74.550781 263.777344 74.5625 263.644531 74.570312 263.507812 Z M 81.824219 245.578125 C 80.839844 243.570312 80.59375 241.410156 80.988281 239.359375 C 81.691406 235.734375 84.402344 232.453125 88.625 230.949219 C 99.929688 226.917969 119.636719 232.023438 125.898438 241.40625 C 133.484375 252.78125 115.515625 255.195312 105.296875 255.128906 C 96.429688 255.074219 85.519531 253.171875 81.824219 245.578125 Z M 128.042969 257.746094 C 128.082031 256.148438 128.816406 254.558594 130.140625 253.625 C 133.695312 251.132812 140.535156 251.976562 143.117188 255.570312 C 146.25 259.921875 140.386719 262.179688 136.976562 262.84375 C 134.023438 263.421875 130.289062 263.351562 128.652344 260.355469 C 128.21875 259.558594 128.019531 258.652344 128.042969 257.746094 Z M 101.296875 296.519531 C 117.261719 306.1875 132.273438 312.308594 146.308594 315.667969 C 144.339844 309.511719 154.207031 302.707031 149.996094 296.519531 C 148.777344 294.738281 146.496094 294.070312 144.386719 293.640625 C 135.71875 291.875 126.679688 291.972656 118.050781 293.921875 C 114.6875 294.679688 111.296875 295.726562 107.863281 295.386719 C 104.667969 295.070312 102.71875 294.109375 101.683594 292.773438 C 98.570312 288.75 103.777344 281.339844 108.367188 278.074219 C 114.617188 273.621094 123.328125 272.515625 130.746094 273.648438 C 141.148438 275.234375 150.5 280.777344 159.097656 286.835938 C 171.746094 295.621094 178.171875 296.730469 193.527344 296.5625 C 194.058594 296.558594 194.632812 296.5625 195.066406 296.871094 C 195.785156 297.382812 195.785156 298.429688 195.671875 299.300781 C 194.652344 307.027344 190.207031 313.558594 183.496094 317.585938 C 182.910156 317.9375 182.308594 318.257812 181.699219 318.570312 C 249.671875 313.078125 286.460938 243.753906 286.460938 243.753906 C 250.796875 274.839844 224.671875 280.445312 200.265625 271.640625 C 200.117188 271.984375 200.039062 272.363281 200.058594 272.800781 C 200.109375 273.722656 200.796875 274.472656 201.476562 275.097656 C 204.261719 277.664062 207.597656 279.632812 211.191406 280.828125 C 212.59375 281.292969 214.066406 281.660156 215.25 282.546875 C 216.351562 283.367188 216.855469 284.152344 216.933594 284.871094 C 217.183594 287.035156 213.632812 288.597656 211.226562 288.78125 C 207.949219 289.027344 204.511719 287.503906 202.042969 285.445312 C 198.585938 282.5625 196.382812 278.457031 194.574219 274.335938 C 192.960938 270.71875 191.550781 268.617188 189.460938 266.789062 C 177.066406 260.171875 164.824219 250.175781 151.660156 238.289062 C 109.128906 199.898438 69.027344 207.667969 61.023438 220.675781 C 46.253906 244.679688 82.484375 285.117188 101.296875 296.519531 " fill-opacity="1" fill-rule="nonzero"/><path fill="#322f30" d="M 74.464844 262.328125 C 74.464844 264.777344 76.449219 266.761719 78.902344 266.761719 C 81.351562 266.761719 83.339844 264.777344 83.339844 262.328125 C 83.339844 259.878906 81.351562 257.894531 78.902344 257.894531 C 76.449219 257.894531 74.464844 259.878906 74.464844 262.328125 " fill-opacity="1" fill-rule="nonzero"/><path fill="#d71920" d="M 154.996094 108.347656 C 154.996094 108.347656 97.429688 113.894531 129.058594 183.425781 C 129.058594 183.425781 87.304688 162.566406 57.570312 187.21875 C 57.570312 187.21875 92.367188 106.59375 154.996094 108.347656 " fill-opacity="1" fill-rule="nonzero"/><g clip-path="url(#eb003e0c7a)"><path fill="#d71920" d="M 252.125 79.90625 C 252.125 79.90625 275.984375 36.226562 238.207031 15.753906 C 238.207031 15.753906 224.527344 50.574219 252.125 79.90625 " fill-opacity="1" fill-rule="nonzero"/></g><path fill="#d71920" d="M 222.777344 126.445312 C 222.777344 126.445312 200.738281 149.042969 176.570312 142.257812 C 170.867188 140.65625 165.039062 137.417969 159.363281 131.855469 C 159.363281 131.855469 203.25 110.957031 222.777344 126.445312 " fill-opacity="1" fill-rule="nonzero"/><path fill="#d71920" d="M 300.65625 111.503906 C 300.726562 111.820312 300.765625 112.148438 300.765625 112.480469 C 300.765625 115.042969 298.6875 117.117188 296.125 117.117188 C 296.113281 117.117188 296.101562 117.113281 296.089844 117.113281 C 295.554688 117.257812 294.996094 117.34375 294.417969 117.34375 C 290.960938 117.34375 288.160156 114.546875 288.160156 111.09375 C 288.160156 107.636719 290.960938 104.835938 294.417969 104.835938 C 297.875 104.835938 300.679688 107.636719 300.679688 111.09375 C 300.679688 111.230469 300.667969 111.367188 300.65625 111.503906 Z M 293.410156 129.429688 C 294.386719 131.441406 294.636719 133.601562 294.242188 135.648438 C 293.539062 139.277344 290.824219 142.558594 286.601562 144.0625 C 275.300781 148.09375 255.589844 142.988281 249.332031 133.601562 C 241.742188 122.226562 259.714844 119.8125 269.933594 119.878906 C 278.796875 119.9375 289.707031 121.835938 293.410156 129.429688 Z M 247.183594 117.261719 C 247.144531 118.863281 246.414062 120.453125 245.085938 121.382812 C 241.535156 123.875 234.695312 123.03125 232.113281 119.441406 C 228.980469 115.085938 234.839844 112.828125 238.25 112.164062 C 241.207031 111.585938 244.941406 111.65625 246.578125 114.65625 C 247.011719 115.449219 247.210938 116.359375 247.183594 117.261719 Z M 273.933594 78.492188 C 257.96875 68.820312 242.953125 62.699219 228.921875 59.339844 C 230.890625 65.5 221.019531 72.304688 225.234375 78.488281 C 226.449219 80.269531 228.730469 80.9375 230.84375 81.367188 C 239.511719 83.136719 248.550781 83.039062 257.175781 81.089844 C 260.539062 80.328125 263.933594 79.28125 267.363281 79.621094 C 270.558594 79.9375 272.511719 80.898438 273.546875 82.234375 C 276.660156 86.261719 271.453125 93.667969 266.863281 96.9375 C 260.613281 101.386719 251.898438 102.492188 244.484375 101.359375 C 234.082031 99.773438 224.726562 94.230469 216.128906 88.175781 C 203.484375 79.390625 197.058594 78.28125 181.703125 78.445312 C 181.171875 78.453125 180.597656 78.445312 180.160156 78.140625 C 179.445312 77.628906 179.445312 76.578125 179.558594 75.710938 C 180.574219 67.980469 185.023438 61.453125 191.730469 57.425781 C 192.320312 57.070312 192.921875 56.75 193.527344 56.4375 C 125.558594 61.929688 88.769531 131.257812 88.769531 131.257812 C 124.433594 100.167969 150.558594 94.5625 174.964844 103.371094 C 175.113281 103.027344 175.191406 102.648438 175.171875 102.207031 C 175.117188 101.285156 174.429688 100.535156 173.75 99.910156 C 170.964844 97.34375 167.632812 95.378906 164.039062 94.183594 C 162.636719 93.714844 161.160156 93.347656 159.976562 92.464844 C 158.878906 91.644531 158.375 90.859375 158.296875 90.136719 C 158.042969 87.972656 161.597656 86.410156 164.003906 86.230469 C 167.28125 85.980469 170.71875 87.507812 173.1875 89.5625 C 176.644531 92.449219 178.847656 96.550781 180.65625 100.675781 C 182.265625 104.289062 183.679688 106.390625 185.769531 108.21875 C 198.160156 114.835938 210.402344 124.835938 223.566406 136.71875 C 266.101562 175.109375 306.203125 167.339844 314.207031 154.332031 C 328.972656 130.328125 292.746094 89.890625 273.933594 78.492188 " fill-opacity="1" fill-rule="nonzero"/><path fill="#322f30" d="M 300.765625 112.683594 C 300.765625 110.230469 298.777344 108.246094 296.328125 108.246094 C 293.875 108.246094 291.890625 110.230469 291.890625 112.683594 C 291.890625 115.128906 293.875 117.117188 296.328125 117.117188 C 298.777344 117.117188 300.765625 115.128906 300.765625 112.683594 " fill-opacity="1" fill-rule="nonzero"/></svg>